<?xml version="1.0" encoding="utf-8"?>
<!-- Generator: Adobe Illustrator 24.0.2, SVG Export Plug-In . SVG Version: 6.00 Build 0)  -->
<svg version="1.1" id="Layer_1" xmlns="http://www.w3.org/2000/svg" xmlns:xlink="http://www.w3.org/1999/xlink" x="0px" y="0px"
	 viewBox="0 0 1502.4 1502.4" style="enable-background:new 0 0 1502.4 1502.4;" xml:space="preserve">
<style type="text/css">
	.st0{fill:#FFFFFF;}
</style>
<g>
	<g>
		<g>
			<path d="M418.1,1058.1c-1.5,12.6-5,20.5-14.4,35c-25.3,40-68.8,59.4-132.7,59.4c-47.8,0-88.4-12.9-117.3-37.4
				c-18.2-15.3-31.1-34.9-37.8-57.1h93.7c11.1,20.5,32.7,32.6,61,32.6c29.8,0,48.2-10.7,56.1-32.6L418.1,1058.1L418.1,1058.1z"/>
		</g>
		<g>
			<path d="M734.6,1058.1H644c0.6,2.1,0.9,4.4,0.9,6.9c0,17-12,23.6-42.6,23.6h-60.7v-30.6h-88v88.6h156.2
				c37.7,0,66.5-1.4,93.3-19.1c21.3-14,32.6-34,32.6-57.9C735.6,1065.7,735.3,1061.8,734.6,1058.1z"/>
		</g>
		<g>
			<path d="M978.5,1058.1c-10.2,22.2-30.5,34.3-59,34.3c-29.5,0-50.5-12.1-60.8-34.3h-93.7c17.1,57.7,75.5,94.4,155.9,94.4
				c46.5,0,86.2-13,114.6-37.6c17.8-15.4,30.3-34.9,36.8-56.8L978.5,1058.1L978.5,1058.1z"/>
		</g>
		<g>
			<polygon points="1113.5,1058.1 1268,1058.1 1209.3,1146.7 1113.5,1146.7 			"/>
			<polygon points="1307.4,1058.1 1392,1058.1 1392,1146.7 1304.3,1146.7 			"/>
		</g>
	</g>
	<g>
		<g>
			<path d="M415.8,436.3h-91c-8.9-16.8-27.1-25.2-54.2-25.2c-24.8,0-44.2,9.1-56.2,25.2h-96c20.5-52.5,78.1-86.4,153.9-86.4
				c36.1,0,70.4,8.8,96.6,24.6C394.6,390.2,410.7,411.4,415.8,436.3z"/>
		</g>
		<g>
			<path d="M687.8,369.8c-17.7-9.2-42.9-14.1-72.7-14.1H453.5v80.6h88V412h52.3c27.1,0,38.7,5.8,38.7,19.5c0,1.6-0.1,3.1-0.5,4.7
				H718c1.5-4.8,2.2-10,2.2-15.6C720.2,398.1,709.3,381,687.8,369.8z"/>
		</g>
		<g>
			<path d="M919.9,349.9c-46.5,0-86.6,13-116,37.5c-16.3,13.6-28.4,30.3-35.8,48.9h95c11.5-17.2,30.8-26.9,55.8-26.9
				c25.4,0,44.6,9.6,55.7,26.9h95.2C1050.9,382.6,996.1,349.9,919.9,349.9z"/>
		</g>
		<g>
			<polygon points="1199.6,436.3 1113.5,436.3 1113.5,355.7 1201.1,355.7 			"/>
			<polygon points="1392,355.7 1392,436.3 1245.4,436.3 1298.8,355.7 			"/>
		</g>
	</g>
	<polygon class="st0" points="1304.9,850.7 1304.9,850.9 1304.8,850.9 	"/>
	<g>
		<path d="M417.3,568.7h-88.4l-0.2-0.6c-2.2-7.8-5.8-14.3-10.9-19.5c-10.1-10.4-25.9-15.7-47.3-15.7c-19.9,0-36.3,5.8-48.2,16.5
			c-5.9,5.3-10.7,11.8-14.2,19.4h-93.2c1.9-6.7,4.3-13.1,7.3-19.2c14.8-30.5,42.9-53.8,79.9-66.7c20.8-7.2,44.5-11.1,70.2-11.1
			c36.1,0,70.4,8.8,96.6,24.6c10.9,6.6,20.1,14.3,27.4,22.7c8.1,9.4,14,19.8,17.5,31c1.6,5.3,2.8,10.8,3.3,16.5L417.3,568.7z"/>
		<g>
			<path d="M720.2,542.4c0,10-2.3,18.6-7.1,26.2h-90c4.9-2.3,7.4-5.4,8.6-8.8c0.7-2.1,1-4.3,1-6.5c0-13.7-11.6-19.5-38.7-19.5h-52.3
				v34.9h-88v-91.2H615c29.8,0,55,4.9,72.7,14.1C709.3,502.7,720.2,519.9,720.2,542.4z"/>
		</g>
		<g>
			<path d="M1073.2,568.7h-93c-3-7.5-7.2-14.1-12.5-19.5c-11.5-11.7-28-18.1-48.7-18.1c-20.6,0-37.3,6.6-49,18.5
				c-5.2,5.3-9.4,11.7-12.6,19.1h-92.9c1.8-6.3,4.2-12.4,7-18.3c7.5-15.5,18.4-29.5,32.4-41.2c13.8-11.6,30.1-20.6,48.2-26.8
				c20.4-7.1,43.1-10.7,67.7-10.7c24,0,45.8,3.2,65.1,9.3c38.5,12.2,66.7,35.8,81.3,67.9C1069.1,555.2,1071.5,561.8,1073.2,568.7z"
				/>
		</g>
		<polygon points="1201.1,477.5 1200.3,519.9 1199.4,568.7 1113.5,568.7 1113.5,477.5 		"/>
		<polygon points="1392,477.5 1392,568.7 1238.4,568.7 1298.8,477.5 		"/>
	</g>
	<g>
		<path d="M418.3,918.5c-0.7,7.6-2,13.4-4.6,19.5L401.8,959c-25.7,38-68.4,56.6-130.8,56.6c-25.2,0-48.4-3.6-68.9-10.6
			c-18.4-6.3-34.7-15.2-48.4-26.8c-13.6-11.4-24.2-25.2-31.5-40.7c-2.9-6.1-5.3-12.4-7.1-19h93.1c3.5,7.3,8.3,13.6,14.2,18.7
			c11.9,10.6,28.4,16.5,48.2,16.5c21.7,0,37.4-5.7,47.3-17.2c4.3-4.9,7.5-10.9,9.7-18H418.3z"/>
		<path d="M413.7,938c-2.2,5.3-5.4,10.9-10,18.1c-0.6,1-1.2,1.9-1.9,2.8L413.7,938z"/>
		<g>
			<path d="M735.6,932.8c0,22.4-9.9,41.3-28.7,55.2c-1.2,0.9-2.5,1.8-3.9,2.7c-26.8,17.7-55.6,19.1-93.3,19.1H453.5v-91.2h88v33.2
				h60.7c13,0,22.6-1.2,29.4-3.8c9.3-3.6,13.3-10,13.3-19.8c0-3.6-0.6-6.8-1.9-9.5h91.1C735.1,923,735.6,927.8,735.6,932.8z"/>
		</g>
		<g>
			<path d="M1072.9,918.5c-1.7,6.3-4,12.5-6.7,18.4c-7.1,15.5-17.5,29.4-30.9,41c-14.3,12.4-31.3,21.8-50.7,28.1
				c-19.2,6.3-40.7,9.5-63.9,9.5c-25.2,0-48.2-3.6-68.5-10.3c-37.7-12.5-65.9-35.8-80.8-66.8c-3-6.3-5.5-12.9-7.4-19.9h93.3
				c3.1,7.4,7.3,13.8,12.6,19.1c11.6,11.6,28.3,17.8,49.4,17.8c20.6,0,37-6.3,48.3-18.2c4.9-5.2,8.9-11.4,11.9-18.7L1072.9,918.5
				L1072.9,918.5z"/>
		</g>
		<polygon points="1269.7,918.5 1209.3,1009.7 1113.5,1009.7 1113.5,918.5 		"/>
		<polygon points="1392,918.5 1392,1009.7 1304.3,1009.7 1305.6,970.5 1307.5,918.5 		"/>
	</g>
	<polygon class="st0" points="1304.9,850.7 1304.9,850.9 1304.8,850.9 	"/>
	<g>
		<path d="M419,766.2l-0.2,4.2c-0.7,15.4-2.7,23.5-9.5,35.6c-1.6,2.8-3.5,5.9-5.7,9.3c-5.4,8.5-11.7,16.1-18.8,22.8
			c-9.8,9.2-21.1,16.6-34.1,22.3c-21.8,9.6-48.3,14.3-79.7,14.3c-25.5,0-49-3.7-69.7-10.8c-3.3-1.1-6.5-2.3-9.6-3.7
			c-14.2-5.9-27-13.5-38-22.9c-10.5-8.9-19.3-19.2-26.1-30.6c-11.2-18.8-17.2-40.6-17.2-63.8c0-23.2,6.1-44.3,17.2-62.4v0
			c14-22.9,36.1-41.1,64.1-52.9c3.1-1.3,6.3-2.6,9.6-3.7c21-7.4,45-11.4,71.1-11.4c28.3,0,55.5,5.4,78.5,15.3
			c6.4,2.8,12.4,5.9,18.1,9.3c1.5,0.9,2.9,1.8,4.4,2.8c16.6,11,28.8,24.4,36.1,39.8c4.1,8.7,6.7,17.9,7.7,27.7l0.4,4.4h-87.9
			l-0.8-2.9c-3.8-13.6-12-23.3-24.4-29c-9-4.2-20.3-6.3-33.8-6.3c-12.3,0-23.3,2.2-32.7,6.5c-21.6,9.7-34.7,29.9-36.6,57.5
			c-0.1,2.2-0.2,4.4-0.2,6.7c0,2,0.1,4,0.2,5.9c1.7,26.6,15.1,46.5,36.6,56.2c9.4,4.3,20.4,6.5,32.7,6.5c13.6,0,24.8-2.2,33.8-6.7
			c13.6-6.9,22-19,25.2-36.7l0.6-3.3L419,766.2L419,766.2z"/>
		<g>
			<path d="M687.7,731.9c-0.4-0.1-0.7-0.3-1.1-0.4c23.1-11.8,33.6-27,33.6-48.3c0-22.6-10.9-39.7-32.4-50.9
				c-2.5-1.3-5.2-2.6-8.1-3.7c-17-6.8-39.1-10.4-64.7-10.4H453.5v250.6h156.2c27.1,0,49.5-0.7,69.9-7.6c2.7-0.9,5.4-1.9,8-3.1
				c5.2-2.3,10.3-5,15.3-8.3c21.3-14,32.6-34,32.6-57.9C735.6,763.2,719.5,743,687.7,731.9z M541.6,674.7h52.3
				c17,0,27.9,2.3,33.7,7.4c3.4,3,5,7,5,12.1c0,9.6-4.3,19.5-36.5,19.5h-54.5L541.6,674.7L541.6,674.7z M627.6,808.3
				c-6.4,1.7-14.7,2.5-25.3,2.5h-60.7v-47.6h58.5c31.4,0,44.8,7.2,44.8,24C644.9,798.4,639.8,805,627.6,808.3z"/>
		</g>
		<g>
			<path d="M1061.1,679.7c-13.4-23.1-34.5-41.1-61.9-52.6c-4.3-1.8-8.9-3.5-13.5-5c-19.5-6.3-41.5-9.6-65.8-9.6
				c-24.8,0-47.9,3.7-68.4,10.9c-3.6,1.3-7.2,2.6-10.6,4.1c-13.6,5.8-26,13.4-36.9,22.5c-10.9,9.2-20,19.7-27,31.3
				c-11.3,18.6-17.2,39.8-17.2,62.3c0,24,6,45.5,17.2,63.9c13.9,23,35.8,41,63.9,52.6c3.4,1.4,7,2.7,10.6,3.9
				c20.5,6.9,43.8,10.6,69.3,10.6c23.7,0,45.5-3.4,65-9.9c4.6-1.5,9.1-3.3,13.4-5.2c13.4-5.9,25.6-13.4,36.1-22.6
				c10.5-9,19.1-19.5,25.8-31.1c10.7-18.4,16.3-39.6,16.3-62C1077.4,719.7,1071.7,698.1,1061.1,679.7z M985.7,748.3
				c-1.4,27.8-12.3,47.8-31,58.1c-9.7,5.4-21.5,8.2-35.2,8.2c-14,0-26.1-2.7-36.1-8c-19.2-10.1-30.3-29.7-31.9-56.9
				c-0.1-2.2-0.2-4.5-0.2-6.8c0-1.7,0-3.4,0.1-5.1c1.3-26.9,12.8-46.9,32-57.5c9.9-5.5,21.9-8.4,35.6-8.4c13.8,0,25.8,2.8,35.6,8.2
				c19.2,10.5,30.3,30.7,31.1,58.4c0,1.1,0.1,2.2,0.1,3.4C985.9,744.1,985.8,746.2,985.7,748.3z"/>
		</g>
		<polygon points="1392,618.3 1392,868.9 1304.3,868.9 1304.9,850.9 1304.9,850.7 1308.7,744.5 1308.7,742.7 1309.6,717.4 
			1304.9,724.5 1209.3,868.9 1113.5,868.9 1113.5,618.3 1201.1,618.3 1200.8,636.4 1200.7,640.2 1200.7,640.2 1198.8,742.7 
			1198.7,744.5 1198.2,770.2 1200.7,766.4 1298.8,618.3 		"/>
	</g>
</g>
</svg>
